# xmcd CD database file
#
# Track frame offsets:
#	150
#	15763
#	30380
#	48784
#	72174
#	90906
#	107211
#	135357
#	152595
#	174069
#
# Disc length: 2569 seconds
#
# Revision: 0
# Processed by: cddbd v1.5.2PL0 Copyright (c) Steve Scherf et al.
# Submitted via: CDex 1.70beta2
#
DISCID=5d0a070a
DTITLE=Renegade Creation - Bullet
DYEAR=2012
DGENRE=Blues
TTITLE0=All Over Again
TTITLE1=Bullet
TTITLE2=On A Mountain
TTITLE3=Nazareth
TTITLE4=People Like Me
TTITLE5=Too Much Of Nothing
TTITLE6=Greedy Life
TTITLE7=High an Low
TTITLE8=Older Today
TTITLE9=Saint and Satan
EXTD=YEAR: 2012
EXTT0=
EXTT1=
EXTT2=
EXTT3=
EXTT4=
EXTT5=
EXTT6=
EXTT7=
EXTT8=
EXTT9=
PLAYORDER=
